<svg width="20" height="26" viewBox="0 0 20 26" fill="none" xmlns="http://www.w3.org/2000/svg">
<path d="M19.675 7.16248L14.125 0.912481C14.0081 0.78299 13.8655 0.679393 13.7062 0.60835C13.5468 0.537308 13.3744 0.500393 13.2 0.499981H3.2C2.78469 0.495027 2.37247 0.571931 1.98688 0.726301C1.60129 0.880671 1.24988 1.10948 0.952727 1.39967C0.655574 1.68986 0.418493 2.03574 0.255023 2.41756C0.0915526 2.79939 0.00489547 3.20967 0 3.62498V22.375C0.00489547 22.7903 0.0915526 23.2006 0.255023 23.5824C0.418493 23.9642 0.655574 24.3101 0.952727 24.6003C1.24988 24.8905 1.60129 25.1193 1.98688 25.2737C2.37247 25.428 2.78469 25.5049 3.2 25.5H16.8C17.2153 25.5049 17.6275 25.428 18.0131 25.2737C18.3987 25.1193 18.7501 24.8905 19.0473 24.6003C19.3444 24.3101 19.5815 23.9642 19.745 23.5824C19.9084 23.2006 19.9951 22.7903 20 22.375V7.99998C19.9992 7.69019 19.8834 7.39173 19.675 7.16248ZM12.5 16.75H11.25V18C11.25 18.3315 11.1183 18.6494 10.8839 18.8839C10.6495 19.1183 10.3315 19.25 10 19.25C9.66848 19.25 9.35054 19.1183 9.11612 18.8839C8.8817 18.6494 8.75 18.3315 8.75 18V16.75H7.5C7.16848 16.75 6.85054 16.6183 6.61612 16.3839C6.3817 16.1494 6.25 15.8315 6.25 15.5C6.25 15.1685 6.3817 14.8505 6.61612 14.6161C6.85054 14.3817 7.16848 14.25 7.5 14.25H8.75V13C8.75 12.6685 8.8817 12.3505 9.11612 12.1161C9.35054 11.8817 9.66848 11.75 10 11.75C10.3315 11.75 10.6495 11.8817 10.8839 12.1161C11.1183 12.3505 11.25 12.6685 11.25 13V14.25H12.5C12.8315 14.25 13.1495 14.3817 13.3839 14.6161C13.6183 14.8505 13.75 15.1685 13.75 15.5C13.75 15.8315 13.6183 16.1494 13.3839 16.3839C13.1495 16.6183 12.8315 16.75 12.5 16.75ZM13.3875 7.99998C13.1298 7.97461 12.8924 7.84903 12.7264 7.65029C12.5604 7.45156 12.4791 7.19558 12.5 6.93748V2.99998L17.175 7.99998H13.3875Z" fill="white"/>
</svg>
