<svg width="26" height="26" viewBox="0 0 26 26" fill="none" xmlns="http://www.w3.org/2000/svg">
<path d="M1.75 14.25H3V23C3 24.3788 4.12125 25.5 5.5 25.5H20.5C21.8788 25.5 23 24.3788 23 23V14.25H24.25C24.4972 14.25 24.7388 14.1766 24.9443 14.0393C25.1498 13.9019 25.31 13.7067 25.4046 13.4783C25.4992 13.25 25.5239 12.9987 25.4757 12.7562C25.4275 12.5138 25.3085 12.2911 25.1338 12.1163L13.8838 0.866257C13.7678 0.750075 13.63 0.657903 13.4784 0.595014C13.3267 0.532126 13.1642 0.499756 13 0.499756C12.8358 0.499756 12.6733 0.532126 12.5216 0.595014C12.37 0.657903 12.2322 0.750075 12.1163 0.866257L0.866251 12.1163C0.691489 12.2911 0.572481 12.5138 0.524271 12.7562C0.476062 12.9987 0.500816 13.25 0.595403 13.4783C0.689991 13.7067 0.850165 13.9019 1.05568 14.0393C1.26119 14.1766 1.50281 14.25 1.75 14.25ZM10.5 23V16.75H15.5V23H10.5ZM13 3.51751L20.5 11.0175V16.75L20.5012 23H18V16.75C18 15.3713 16.8788 14.25 15.5 14.25H10.5C9.12125 14.25 8 15.3713 8 16.75V23H5.5V11.0175L13 3.51751Z" fill="white"/>
</svg>
